<?xml version="1.0" encoding="iso-8859-1"?>
<!-- Generator: Adobe Illustrator 19.0.0, SVG Export Plug-In . SVG Version: 6.00 Build 0)  -->
<svg version="1.1" id="Layer_1" xmlns="http://www.w3.org/2000/svg" xmlns:xlink="http://www.w3.org/1999/xlink" x="0px" y="0px"
	 viewBox="0 0 512.001 512.001" style="enable-background:new 0 0 512.001 512.001;" xml:space="preserve">
<g>
	<g>
		<path d="M507.107,167.232l-11.129-11.13c-6.511-6.521-17.087-6.521-23.609,0c-6.521,6.516-6.521,17.087,0,23.609l11.13,11.13
			c3.261,3.261,7.533,4.892,11.804,4.892c4.271,0,8.544-1.631,11.804-4.892C513.629,184.325,513.629,173.754,507.107,167.232z"/>
	</g>
</g>
<g>
	<g>
		<path d="M440.326,156.102c-6.521-6.522-17.097-6.522-23.608,0l-11.13,11.13c-6.521,6.521-6.521,17.092,0,23.609
			c3.261,3.261,7.533,4.892,11.804,4.892s8.544-1.631,11.804-4.892l11.13-11.13C446.847,173.189,446.847,162.619,440.326,156.102z"
			/>
	</g>
</g>
<g>
	<g>
		<path d="M507.11,89.319c-3.261-3.261-7.533-4.892-11.805-4.892c-4.272,0-8.544,1.631-11.804,4.892l-11.13,11.13
			c-6.521,6.521-6.521,17.092,0,23.609c6.521,6.521,17.097,6.521,23.609,0l11.13-11.13
			C513.631,106.407,513.631,95.836,507.11,89.319z"/>
	</g>
</g>
<g>
	<g>
		<path d="M441.658,104.515l-23.609-23.609c-19.527-19.538-51.316-19.527-70.832,0l-7.869,7.869l-23.614-23.614
			c-6.521-6.521-17.087-6.521-23.609,0l-44.575,44.575c-21.699-9.182-45.244-14.01-69.55-14.01
			c-47.625,0-92.343,18.494-125.924,52.076c-69.435,69.435-69.435,182.419,0,251.853c33.582,33.582,78.299,52.076,125.924,52.076
			c47.625,0,92.348-18.494,125.93-52.076c33.582-33.582,52.076-78.299,52.076-125.924c0-24.306-4.828-47.851-14.01-69.551
			l44.575-44.575c6.521-6.516,6.521-17.092,0-23.609l-23.614-23.614l7.869-7.869c6.506-6.506,17.097-6.516,23.614,0l23.609,23.609
			c3.261,3.261,7.533,4.892,11.804,4.892s8.544-1.631,11.804-4.892C448.179,121.607,448.179,111.03,441.658,104.515z
			 M256.762,352.319c-21.038,21.043-48.978,32.63-78.674,32.63c-29.696,0-57.636-11.587-78.674-32.63
			c-6.521-6.516-6.521-17.092,0-23.609c6.521-6.521,17.087-6.521,23.609,0c14.733,14.733,34.294,22.847,55.066,22.847
			s40.331-8.114,55.066-22.847c6.521-6.521,17.087-6.521,23.609,0C263.283,335.226,263.283,345.802,256.762,352.319z"/>
	</g>
</g>
<g>
</g>
<g>
</g>
<g>
</g>
<g>
</g>
<g>
</g>
<g>
</g>
<g>
</g>
<g>
</g>
<g>
</g>
<g>
</g>
<g>
</g>
<g>
</g>
<g>
</g>
<g>
</g>
<g>
</g>
</svg>
